<?xml version="1.0" encoding="iso-8859-1"?>
<!-- Generator: Adobe Illustrator 19.0.0, SVG Export Plug-In . SVG Version: 6.00 Build 0)  -->
<svg version="1.1" id="Capa_1" xmlns="http://www.w3.org/2000/svg" xmlns:xlink="http://www.w3.org/1999/xlink" x="0px" y="0px"
	 viewBox="0 0 384 384" style="enable-background:new 0 0 384 384;" xml:space="preserve">
<g>
	<g>
		<path d="M178.728,302.368l-3.16-38.984c-0.712-8.808-8.408-15.336-17.24-14.656c-8.808,0.712-15.368,8.432-14.656,17.24
			l3.16,38.984c0.68,8.36,7.68,14.704,15.928,14.704c0.432,0,0.872-0.016,1.312-0.048
			C172.88,318.896,179.44,311.176,178.728,302.368z"/>
	</g>
</g>
<g>
	<g>
		<path d="M344,56h-40h-48.552C251.488,24.48,224.576,0,192,0s-59.488,24.48-63.448,56H80H40c-8.832,0-16,7.168-16,16
			c0,8.832,7.168,16,16,16h25.256l20.568,251.592C87.688,364.496,108.712,384,133.688,384h116.624c24.976,0,46-19.504,47.848-44.304
			L318.744,88H344c8.832,0,16-7.168,16-16C360,63.168,352.832,56,344,56z M192,32c14.88,0,27.432,10.216,30.984,24h-61.976
			C164.576,42.216,177.12,32,192,32z M266.264,337.2c-0.624,8.304-7.632,14.8-15.952,14.8H133.688
			c-8.328,0-15.336-6.504-15.968-14.912L97.36,88h31.88l10.48,129.296c0.688,8.368,7.688,14.704,15.936,14.704
			c0.432,0,0.872-0.016,1.312-0.048c8.808-0.712,15.368-8.432,14.656-17.24L161.352,88H240h46.64L266.264,337.2z"/>
	</g>
</g>
<g>
</g>
<g>
</g>
<g>
</g>
<g>
</g>
<g>
</g>
<g>
</g>
<g>
</g>
<g>
</g>
<g>
</g>
<g>
</g>
<g>
</g>
<g>
</g>
<g>
</g>
<g>
</g>
<g>
</g>
</svg>
